<svg aria-roledescription="er" role="graphics-document document" viewBox="0 -61.90625 471.828125 337.25" style="max-width: 100%;" xmlns="http://www.w3.org/2000/svg" width="100%" id="graph-div" height="100%" xmlns:xlink="http://www.w3.org/1999/xlink"><style>@import url("https://cdnjs.cloudflare.com/ajax/libs/font-awesome/6.4.2/css/all.min.css");'</style><style>#graph-div{font-family:"trebuchet ms",verdana,arial,sans-serif;font-size:16px;fill:#333;}#graph-div .error-icon{fill:#552222;}#graph-div .error-text{fill:#552222;stroke:#552222;}#graph-div .edge-thickness-normal{stroke-width:2px;}#graph-div .edge-thickness-thick{stroke-width:3.5px;}#graph-div .edge-pattern-solid{stroke-dasharray:0;}#graph-div .edge-pattern-dashed{stroke-dasharray:3;}#graph-div .edge-pattern-dotted{stroke-dasharray:2;}#graph-div .marker{fill:#333333;stroke:#333333;}#graph-div .marker.cross{stroke:#333333;}#graph-div svg{font-family:"trebuchet ms",verdana,arial,sans-serif;font-size:16px;}#graph-div .entityBox{fill:#ECECFF;stroke:#9370DB;}#graph-div .attributeBoxOdd{fill:#ffffff;stroke:#9370DB;}#graph-div .attributeBoxEven{fill:#f2f2f2;stroke:#9370DB;}#graph-div .relationshipLabelBox{fill:hsl(80, 100%, 96.2745098039%);opacity:0.7;background-color:hsl(80, 100%, 96.2745098039%);}#graph-div .relationshipLabelBox rect{opacity:0.5;}#graph-div .relationshipLine{stroke:#333333;}#graph-div .entityTitleText{text-anchor:middle;font-size:18px;fill:#333;}#graph-div #MD_PARENT_START{fill:#f5f5f5!important;stroke:#333333!important;stroke-width:1;}#graph-div #MD_PARENT_END{fill:#f5f5f5!important;stroke:#333333!important;stroke-width:1;}#graph-div :root{--mermaid-font-family:"trebuchet ms",verdana,arial,sans-serif;}</style><g></g><defs><marker orient="auto" markerHeight="240" markerWidth="190" refY="7" refX="0" id="MD_PARENT_START"><path d="M 18,7 L9,13 L1,7 L9,1 Z"></path></marker></defs><defs><marker orient="auto" markerHeight="28" markerWidth="20" refY="7" refX="19" id="MD_PARENT_END"><path d="M 18,7 L9,13 L1,7 L9,1 Z"></path></marker></defs><defs><marker orient="auto" markerHeight="18" markerWidth="18" refY="9" refX="0" id="ONLY_ONE_START"><path d="M9,0 L9,18 M15,0 L15,18" fill="none" stroke="gray"></path></marker></defs><defs><marker orient="auto" markerHeight="18" markerWidth="18" refY="9" refX="18" id="ONLY_ONE_END"><path d="M3,0 L3,18 M9,0 L9,18" fill="none" stroke="gray"></path></marker></defs><defs><marker orient="auto" markerHeight="18" markerWidth="30" refY="9" refX="0" id="ZERO_OR_ONE_START"><circle r="6" cy="9" cx="21" fill="white" stroke="gray"></circle><path d="M9,0 L9,18" fill="none" stroke="gray"></path></marker></defs><defs><marker orient="auto" markerHeight="18" markerWidth="30" refY="9" refX="30" id="ZERO_OR_ONE_END"><circle r="6" cy="9" cx="9" fill="white" stroke="gray"></circle><path d="M21,0 L21,18" fill="none" stroke="gray"></path></marker></defs><defs><marker orient="auto" markerHeight="36" markerWidth="45" refY="18" refX="18" id="ONE_OR_MORE_START"><path d="M0,18 Q 18,0 36,18 Q 18,36 0,18 M42,9 L42,27" fill="none" stroke="gray"></path></marker></defs><defs><marker orient="auto" markerHeight="36" markerWidth="45" refY="18" refX="27" id="ONE_OR_MORE_END"><path d="M3,9 L3,27 M9,18 Q27,0 45,18 Q27,36 9,18" fill="none" stroke="gray"></path></marker></defs><defs><marker orient="auto" markerHeight="36" markerWidth="57" refY="18" refX="18" id="ZERO_OR_MORE_START"><circle r="6" cy="18" cx="48" fill="white" stroke="gray"></circle><path d="M0,18 Q18,0 36,18 Q18,36 0,18" fill="none" stroke="gray"></path></marker></defs><defs><marker orient="auto" markerHeight="36" markerWidth="57" refY="18" refX="39" id="ZERO_OR_MORE_END"><circle r="6" cy="18" cx="9" fill="white" stroke="gray"></circle><path d="M21,18 Q39,0 57,18 Q39,36 21,18" fill="none" stroke="gray"></path></marker></defs><path style="stroke: gray; fill: none;" marker-start="url(#ONLY_ONE_START)" marker-end="url(#ZERO_OR_MORE_END)" d="M235.914,87.672L235.914,96.005C235.914,104.339,235.914,121.005,235.914,137.672C235.914,154.339,235.914,171.005,235.914,179.339L235.914,187.672" class="er relationshipLine"></path><g transform="translate(62.625,20 )" id="entity-buttons-bd8b7d37-a43f-5188-bdf2-74c12ee244e0"><rect height="67.671875" width="346.578125" y="0" x="0" class="er entityBox"></rect><text style="dominant-baseline: middle; text-anchor: middle; font-size: 12px;" transform="translate(173.2890625,11.9765625)" y="0" x="0" id="text-entity-buttons-bd8b7d37-a43f-5188-bdf2-74c12ee244e0" class="er entityLabel">buttons</text><rect height="21.859375" width="34.96875" y="23.953125" x="0" class="er attributeBoxOdd"></rect><text style="dominant-baseline: middle; font-size: 10.2px;" transform="translate(5,34.8828125)" y="0" x="0" id="text-entity-buttons-bd8b7d37-a43f-5188-bdf2-74c12ee244e0-attr-1-type" class="er entityLabel">id</text><rect height="21.859375" width="40.328125" y="23.953125" x="34.96875" class="er attributeBoxOdd"></rect><text style="dominant-baseline: middle; font-size: 10.2px;" transform="translate(39.96875,34.8828125)" y="0" x="0" id="text-entity-buttons-bd8b7d37-a43f-5188-bdf2-74c12ee244e0-attr-1-name" class="er entityLabel">SERIAL</text><rect height="21.859375" width="20.828125" y="23.953125" x="75.296875" class="er attributeBoxOdd"></rect><text style="dominant-baseline: middle; font-size: 10.2px;" transform="translate(80.296875,34.8828125)" y="0" x="0" id="text-entity-buttons-bd8b7d37-a43f-5188-bdf2-74c12ee244e0-attr-1-key" class="er entityLabel">pk</text><rect height="21.859375" width="250.453125" y="23.953125" x="96.125" class="er attributeBoxOdd"></rect><text style="dominant-baseline: middle; font-size: 10.2px;" transform="translate(101.125,34.8828125)" y="0" x="0" id="text-entity-buttons-bd8b7d37-a43f-5188-bdf2-74c12ee244e0-attr-1-comment" class="er entityLabel">The button's unique ID; NOT NULL</text><rect height="21.859375" width="34.96875" y="45.8125" x="0" class="er attributeBoxEven"></rect><text style="dominant-baseline: middle; font-size: 10.2px;" transform="translate(5,56.7421875)" y="0" x="0" id="text-entity-buttons-bd8b7d37-a43f-5188-bdf2-74c12ee244e0-attr-2-type" class="er entityLabel">name</text><rect height="21.859375" width="40.328125" y="45.8125" x="34.96875" class="er attributeBoxEven"></rect><text style="dominant-baseline: middle; font-size: 10.2px;" transform="translate(39.96875,56.7421875)" y="0" x="0" id="text-entity-buttons-bd8b7d37-a43f-5188-bdf2-74c12ee244e0-attr-2-name" class="er entityLabel">TEXT</text><rect height="21.859375" width="20.828125" y="45.8125" x="75.296875" class="er attributeBoxEven"></rect><text style="dominant-baseline: middle; font-size: 10.2px;" transform="translate(80.296875,56.7421875)" y="0" x="0" id="text-entity-buttons-bd8b7d37-a43f-5188-bdf2-74c12ee244e0-attr-2-key" class="er entityLabel"></text><rect height="21.859375" width="250.453125" y="45.8125" x="96.125" class="er attributeBoxEven"></rect><text style="dominant-baseline: middle; font-size: 10.2px;" transform="translate(101.125,56.7421875)" y="0" x="0" id="text-entity-buttons-bd8b7d37-a43f-5188-bdf2-74c12ee244e0-attr-2-comment" class="er entityLabel">The name of the behavior being tracked; NOT NULL.</text></g><g transform="translate(20,187.671875 )" id="entity-log-92f228c6-7894-56ca-97fe-0ead9a19887b"><rect height="67.671875" width="431.828125" y="0" x="0" class="er entityBox"></rect><text style="dominant-baseline: middle; text-anchor: middle; font-size: 12px;" transform="translate(215.9140625,11.9765625)" y="0" x="0" id="text-entity-log-92f228c6-7894-56ca-97fe-0ead9a19887b" class="er entityLabel">log</text><rect height="21.859375" width="54.34375" y="23.953125" x="0" class="er attributeBoxOdd"></rect><text style="dominant-baseline: middle; font-size: 10.2px;" transform="translate(5,34.8828125)" y="0" x="0" id="text-entity-log-92f228c6-7894-56ca-97fe-0ead9a19887b-attr-1-type" class="er entityLabel">button_id</text><rect height="21.859375" width="72.765625" y="23.953125" x="54.34375" class="er attributeBoxOdd"></rect><text style="dominant-baseline: middle; font-size: 10.2px;" transform="translate(59.34375,34.8828125)" y="0" x="0" id="text-entity-log-92f228c6-7894-56ca-97fe-0ead9a19887b-attr-1-name" class="er entityLabel">INTEGER</text><rect height="21.859375" width="304.71875" y="23.953125" x="127.109375" class="er attributeBoxOdd"></rect><text style="dominant-baseline: middle; font-size: 10.2px;" transform="translate(132.109375,34.8828125)" y="0" x="0" id="text-entity-log-92f228c6-7894-56ca-97fe-0ead9a19887b-attr-1-comment" class="er entityLabel">The button that was pressed; NOT NULL.</text><rect height="21.859375" width="54.34375" y="45.8125" x="0" class="er attributeBoxEven"></rect><text style="dominant-baseline: middle; font-size: 10.2px;" transform="translate(5,56.7421875)" y="0" x="0" id="text-entity-log-92f228c6-7894-56ca-97fe-0ead9a19887b-attr-2-type" class="er entityLabel">at</text><rect height="21.859375" width="72.765625" y="45.8125" x="54.34375" class="er attributeBoxEven"></rect><text style="dominant-baseline: middle; font-size: 10.2px;" transform="translate(59.34375,56.7421875)" y="0" x="0" id="text-entity-log-92f228c6-7894-56ca-97fe-0ead9a19887b-attr-2-name" class="er entityLabel">TIMESTAMPTZ</text><rect height="21.859375" width="304.71875" y="45.8125" x="127.109375" class="er attributeBoxEven"></rect><text style="dominant-baseline: middle; font-size: 10.2px;" transform="translate(132.109375,56.7421875)" y="0" x="0" id="text-entity-log-92f228c6-7894-56ca-97fe-0ead9a19887b-attr-2-comment" class="er entityLabel">A timestamp indicated when the button was clicked; NOT NULL.</text></g><rect height="13.953125" width="90.546875" y="130.6954345703125" x="190.64056396484375" class="er relationshipLabelBox"></rect><text style="text-anchor: middle; dominant-baseline: middle; font-size: 12px;" y="137.6719970703125" x="235.91400146484375" id="rel270" class="er relationshipLabel">clicks tracked by</text><text class="entityTitleText" y="-25" x="235.9140625">PE Tracker ER diagram</text></svg>