<svg aria-roledescription="er" role="graphics-document document" viewBox="0 -61.90625 407.109375 359.109375" style="max-width: 100%;" xmlns="http://www.w3.org/2000/svg" width="100%" id="graph-div" height="100%" xmlns:xlink="http://www.w3.org/1999/xlink"><style>@import url("https://cdnjs.cloudflare.com/ajax/libs/font-awesome/6.5.1/css/all.min.css");'</style><style>#graph-div{font-family:"trebuchet ms",verdana,arial,sans-serif;font-size:16px;fill:#333;}#graph-div .error-icon{fill:#552222;}#graph-div .error-text{fill:#552222;stroke:#552222;}#graph-div .edge-thickness-normal{stroke-width:2px;}#graph-div .edge-thickness-thick{stroke-width:3.5px;}#graph-div .edge-pattern-solid{stroke-dasharray:0;}#graph-div .edge-pattern-dashed{stroke-dasharray:3;}#graph-div .edge-pattern-dotted{stroke-dasharray:2;}#graph-div .marker{fill:#333333;stroke:#333333;}#graph-div .marker.cross{stroke:#333333;}#graph-div svg{font-family:"trebuchet ms",verdana,arial,sans-serif;font-size:16px;}#graph-div .entityBox{fill:#ECECFF;stroke:#9370DB;}#graph-div .attributeBoxOdd{fill:#ffffff;stroke:#9370DB;}#graph-div .attributeBoxEven{fill:#f2f2f2;stroke:#9370DB;}#graph-div .relationshipLabelBox{fill:hsl(80, 100%, 96.2745098039%);opacity:0.7;background-color:hsl(80, 100%, 96.2745098039%);}#graph-div .relationshipLabelBox rect{opacity:0.5;}#graph-div .relationshipLine{stroke:#333333;}#graph-div .entityTitleText{text-anchor:middle;font-size:18px;fill:#333;}#graph-div #MD_PARENT_START{fill:#f5f5f5!important;stroke:#333333!important;stroke-width:1;}#graph-div #MD_PARENT_END{fill:#f5f5f5!important;stroke:#333333!important;stroke-width:1;}#graph-div :root{--mermaid-font-family:"trebuchet ms",verdana,arial,sans-serif;}</style><g></g><defs><marker orient="auto" markerHeight="240" markerWidth="190" refY="7" refX="0" id="MD_PARENT_START"><path d="M 18,7 L9,13 L1,7 L9,1 Z"></path></marker></defs><defs><marker orient="auto" markerHeight="28" markerWidth="20" refY="7" refX="19" id="MD_PARENT_END"><path d="M 18,7 L9,13 L1,7 L9,1 Z"></path></marker></defs><defs><marker orient="auto" markerHeight="18" markerWidth="18" refY="9" refX="0" id="ONLY_ONE_START"><path d="M9,0 L9,18 M15,0 L15,18" fill="none" stroke="gray"></path></marker></defs><defs><marker orient="auto" markerHeight="18" markerWidth="18" refY="9" refX="18" id="ONLY_ONE_END"><path d="M3,0 L3,18 M9,0 L9,18" fill="none" stroke="gray"></path></marker></defs><defs><marker orient="auto" markerHeight="18" markerWidth="30" refY="9" refX="0" id="ZERO_OR_ONE_START"><circle r="6" cy="9" cx="21" fill="white" stroke="gray"></circle><path d="M9,0 L9,18" fill="none" stroke="gray"></path></marker></defs><defs><marker orient="auto" markerHeight="18" markerWidth="30" refY="9" refX="30" id="ZERO_OR_ONE_END"><circle r="6" cy="9" cx="9" fill="white" stroke="gray"></circle><path d="M21,0 L21,18" fill="none" stroke="gray"></path></marker></defs><defs><marker orient="auto" markerHeight="36" markerWidth="45" refY="18" refX="18" id="ONE_OR_MORE_START"><path d="M0,18 Q 18,0 36,18 Q 18,36 0,18 M42,9 L42,27" fill="none" stroke="gray"></path></marker></defs><defs><marker orient="auto" markerHeight="36" markerWidth="45" refY="18" refX="27" id="ONE_OR_MORE_END"><path d="M3,9 L3,27 M9,18 Q27,0 45,18 Q27,36 9,18" fill="none" stroke="gray"></path></marker></defs><defs><marker orient="auto" markerHeight="36" markerWidth="57" refY="18" refX="18" id="ZERO_OR_MORE_START"><circle r="6" cy="18" cx="48" fill="white" stroke="gray"></circle><path d="M0,18 Q18,0 36,18 Q18,36 0,18" fill="none" stroke="gray"></path></marker></defs><defs><marker orient="auto" markerHeight="36" markerWidth="57" refY="18" refX="39" id="ZERO_OR_MORE_END"><circle r="6" cy="18" cx="9" fill="white" stroke="gray"></circle><path d="M21,18 Q39,0 57,18 Q39,36 21,18" fill="none" stroke="gray"></path></marker></defs><path style="stroke: gray; fill: none;" marker-start="url(#ONLY_ONE_START)" marker-end="url(#ZERO_OR_MORE_END)" d="M203.555,87.672L203.555,96.005C203.555,104.339,203.555,121.005,203.555,137.672C203.555,154.339,203.555,171.005,203.555,179.339L203.555,187.672" class="er relationshipLine"></path><g transform="translate(108.5859375,20 )" id="entity-words-62ee59f4-8f71-518d-a747-63bdc56347b7"><rect height="67.671875" width="189.9375" y="0" x="0" class="er entityBox"></rect><text style="dominant-baseline: middle; text-anchor: middle; font-size: 12px;" transform="translate(94.96875,11.9765625)" y="0" x="0" id="text-entity-words-62ee59f4-8f71-518d-a747-63bdc56347b7" class="er entityLabel">words</text><rect height="21.859375" width="35.75" y="23.953125" x="0" class="er attributeBoxOdd"></rect><text style="dominant-baseline: middle; font-size: 10.2px;" transform="translate(5,34.8828125)" y="0" x="0" id="text-entity-words-62ee59f4-8f71-518d-a747-63bdc56347b7-attr-1-type" class="er entityLabel">id</text><rect height="21.859375" width="49.046875" y="23.953125" x="35.75" class="er attributeBoxOdd"></rect><text style="dominant-baseline: middle; font-size: 10.2px;" transform="translate(40.75,34.8828125)" y="0" x="0" id="text-entity-words-62ee59f4-8f71-518d-a747-63bdc56347b7-attr-1-name" class="er entityLabel">INTEGER</text><rect height="21.859375" width="20.828125" y="23.953125" x="84.796875" class="er attributeBoxOdd"></rect><text style="dominant-baseline: middle; font-size: 10.2px;" transform="translate(89.796875,34.8828125)" y="0" x="0" id="text-entity-words-62ee59f4-8f71-518d-a747-63bdc56347b7-attr-1-key" class="er entityLabel">pk</text><rect height="21.859375" width="84.3125" y="23.953125" x="105.625" class="er attributeBoxOdd"></rect><text style="dominant-baseline: middle; font-size: 10.2px;" transform="translate(110.625,34.8828125)" y="0" x="0" id="text-entity-words-62ee59f4-8f71-518d-a747-63bdc56347b7-attr-1-comment" class="er entityLabel">1…</text><rect height="21.859375" width="35.75" y="45.8125" x="0" class="er attributeBoxEven"></rect><text style="dominant-baseline: middle; font-size: 10.2px;" transform="translate(5,56.7421875)" y="0" x="0" id="text-entity-words-62ee59f4-8f71-518d-a747-63bdc56347b7-attr-2-type" class="er entityLabel">string</text><rect height="21.859375" width="49.046875" y="45.8125" x="35.75" class="er attributeBoxEven"></rect><text style="dominant-baseline: middle; font-size: 10.2px;" transform="translate(40.75,56.7421875)" y="0" x="0" id="text-entity-words-62ee59f4-8f71-518d-a747-63bdc56347b7-attr-2-name" class="er entityLabel">TEXT</text><rect height="21.859375" width="20.828125" y="45.8125" x="84.796875" class="er attributeBoxEven"></rect><text style="dominant-baseline: middle; font-size: 10.2px;" transform="translate(89.796875,56.7421875)" y="0" x="0" id="text-entity-words-62ee59f4-8f71-518d-a747-63bdc56347b7-attr-2-key" class="er entityLabel"></text><rect height="21.859375" width="84.3125" y="45.8125" x="105.625" class="er attributeBoxEven"></rect><text style="dominant-baseline: middle; font-size: 10.2px;" transform="translate(110.625,56.7421875)" y="0" x="0" id="text-entity-words-62ee59f4-8f71-518d-a747-63bdc56347b7-attr-2-comment" class="er entityLabel">The actual word</text></g><g transform="translate(20,187.671875 )" id="entity-bigrams-81cad426-6944-59f3-8bb6-0077607a57bc"><rect height="89.53125" width="367.109375" y="0" x="0" class="er entityBox"></rect><text style="dominant-baseline: middle; text-anchor: middle; font-size: 12px;" transform="translate(183.5546875,11.9765625)" y="0" x="0" id="text-entity-bigrams-81cad426-6944-59f3-8bb6-0077607a57bc" class="er entityLabel">bigrams</text><rect height="21.859375" width="76.421875" y="23.953125" x="0" class="er attributeBoxOdd"></rect><text style="dominant-baseline: middle; font-size: 10.2px;" transform="translate(5,34.8828125)" y="0" x="0" id="text-entity-bigrams-81cad426-6944-59f3-8bb6-0077607a57bc-attr-1-type" class="er entityLabel">id</text><rect height="21.859375" width="49.046875" y="23.953125" x="76.421875" class="er attributeBoxOdd"></rect><text style="dominant-baseline: middle; font-size: 10.2px;" transform="translate(81.421875,34.8828125)" y="0" x="0" id="text-entity-bigrams-81cad426-6944-59f3-8bb6-0077607a57bc-attr-1-name" class="er entityLabel">INTEGER</text><rect height="21.859375" width="20.828125" y="23.953125" x="125.46875" class="er attributeBoxOdd"></rect><text style="dominant-baseline: middle; font-size: 10.2px;" transform="translate(130.46875,34.8828125)" y="0" x="0" id="text-entity-bigrams-81cad426-6944-59f3-8bb6-0077607a57bc-attr-1-key" class="er entityLabel">pk</text><rect height="21.859375" width="220.8125" y="23.953125" x="146.296875" class="er attributeBoxOdd"></rect><text style="dominant-baseline: middle; font-size: 10.2px;" transform="translate(151.296875,34.8828125)" y="0" x="0" id="text-entity-bigrams-81cad426-6944-59f3-8bb6-0077607a57bc-attr-1-comment" class="er entityLabel">1…</text><rect height="21.859375" width="76.421875" y="45.8125" x="0" class="er attributeBoxEven"></rect><text style="dominant-baseline: middle; font-size: 10.2px;" transform="translate(5,56.7421875)" y="0" x="0" id="text-entity-bigrams-81cad426-6944-59f3-8bb6-0077607a57bc-attr-2-type" class="er entityLabel">words_id</text><rect height="21.859375" width="49.046875" y="45.8125" x="76.421875" class="er attributeBoxEven"></rect><text style="dominant-baseline: middle; font-size: 10.2px;" transform="translate(81.421875,56.7421875)" y="0" x="0" id="text-entity-bigrams-81cad426-6944-59f3-8bb6-0077607a57bc-attr-2-name" class="er entityLabel">INTEGER</text><rect height="21.859375" width="20.828125" y="45.8125" x="125.46875" class="er attributeBoxEven"></rect><text style="dominant-baseline: middle; font-size: 10.2px;" transform="translate(130.46875,56.7421875)" y="0" x="0" id="text-entity-bigrams-81cad426-6944-59f3-8bb6-0077607a57bc-attr-2-key" class="er entityLabel">fk</text><rect height="21.859375" width="220.8125" y="45.8125" x="146.296875" class="er attributeBoxEven"></rect><text style="dominant-baseline: middle; font-size: 10.2px;" transform="translate(151.296875,56.7421875)" y="0" x="0" id="text-entity-bigrams-81cad426-6944-59f3-8bb6-0077607a57bc-attr-2-comment" class="er entityLabel">The current word</text><rect height="21.859375" width="76.421875" y="67.671875" x="0" class="er attributeBoxOdd"></rect><text style="dominant-baseline: middle; font-size: 10.2px;" transform="translate(5,78.6015625)" y="0" x="0" id="text-entity-bigrams-81cad426-6944-59f3-8bb6-0077607a57bc-attr-3-type" class="er entityLabel">next_words_id</text><rect height="21.859375" width="49.046875" y="67.671875" x="76.421875" class="er attributeBoxOdd"></rect><text style="dominant-baseline: middle; font-size: 10.2px;" transform="translate(81.421875,78.6015625)" y="0" x="0" id="text-entity-bigrams-81cad426-6944-59f3-8bb6-0077607a57bc-attr-3-name" class="er entityLabel">INTEGER</text><rect height="21.859375" width="20.828125" y="67.671875" x="125.46875" class="er attributeBoxOdd"></rect><text style="dominant-baseline: middle; font-size: 10.2px;" transform="translate(130.46875,78.6015625)" y="0" x="0" id="text-entity-bigrams-81cad426-6944-59f3-8bb6-0077607a57bc-attr-3-key" class="er entityLabel">fk</text><rect height="21.859375" width="220.8125" y="67.671875" x="146.296875" class="er attributeBoxOdd"></rect><text style="dominant-baseline: middle; font-size: 10.2px;" transform="translate(151.296875,78.6015625)" y="0" x="0" id="text-entity-bigrams-81cad426-6944-59f3-8bb6-0077607a57bc-attr-3-comment" class="er entityLabel">A word following the current word in our data</text></g><rect height="13.953125" width="75.359375" y="130.6954345703125" x="165.87530517578125" class="er relationshipLabelBox"></rect><text style="text-anchor: middle; dominant-baseline: middle; font-size: 12px;" y="137.6719970703125" x="203.55499267578125" id="rel199" class="er relationshipLabel">referenced by</text><text class="entityTitleText" y="-25" x="203.5546875">Bigrams ER diagram</text></svg>